<?xml version="1.0" encoding="utf-8"?>
<!-- Generator: Adobe Illustrator 21.0.0, SVG Export Plug-In . SVG Version: 6.00 Build 0)  -->
<svg version="1.1" id="图层_1" xmlns="http://www.w3.org/2000/svg" xmlns:xlink="http://www.w3.org/1999/xlink" x="0px" y="0px"
	 width="873.1px" height="855.1px" viewBox="0 0 873.1 855.1" style="enable-background:new 0 0 873.1 855.1;" xml:space="preserve"
	>
<style type="text/css">
	.st0{fill:#173079;}
	.st1{fill:#C09E15;}
	.st2{fill:#18347A;}
</style>
<g>
	<path class="st0" d="M774.9,19.6H98.2c-38.4,0-69.6,31.2-69.6,69.6V613c0,38.4,31.2,69.6,69.6,69.6h676.7
		c38.4,0,69.6-31.2,69.6-69.6V89.2C844.5,50.8,813.4,19.6,774.9,19.6z M79.6,89.2c0-10.3,8.3-18.6,18.6-18.6h676.7
		c10.3,0,18.6,8.3,18.6,18.6v389.4H79.6V89.2z M793.5,612.9c0,10.3-8.3,18.6-18.6,18.6H98.2c-10.3,0-18.6-8.3-18.6-18.6v-83.3h713.9
		V612.9z"/>
	<rect x="411.1" y="555" class="st0" width="51" height="51"/>
	<path class="st1" d="M360.1,351.1h76.5c12.1,0,22.6-8.6,25-20.5l8-39.9l45.1,120.4c3.7,9.9,13.2,16.5,23.9,16.5
		c0.7,0,1.4,0,2.1-0.1c11.3-0.9,20.7-9.3,22.9-20.4L594,255.3l22.1,77.4c3.1,10.9,13.1,18.5,24.5,18.5h76.5
		c14.1,0,25.5-11.4,25.5-25.5s-11.4-25.5-25.5-25.5h-57.3l-45.7-160c-3-11.5-13.7-19.2-25.6-18.5c-11.8,0.5-21.7,8.9-24,20.5
		L531,309.6l-45.1-120.4c-4-10.7-14.6-17.4-25.9-16.4c-11.3,0.9-20.7,9.3-22.9,20.4l-21.4,107h-55.6c-14.1,0-25.5,11.4-25.5,25.5
		C334.6,339.7,346,351.1,360.1,351.1L360.1,351.1z"/>
	<rect x="130.6" y="147.1" class="st0" width="51" height="51"/>
	<rect x="130.6" y="249.1" class="st0" width="51" height="51"/>
	<rect x="130.6" y="351.1" class="st0" width="51" height="51"/>
	<rect x="232.6" y="147.1" class="st0" width="51" height="51"/>
	<rect x="232.6" y="249.1" class="st0" width="51" height="51"/>
	<rect x="232.6" y="351.1" class="st0" width="51" height="51"/>
	<path class="st2" d="M640.6,784.5h-44.1c-8.1-6.4-32.4-31.4-32.4-102h-51c0,46.6,9,79.2,20.4,102H339.7
		c11.4-22.8,20.4-55.4,20.4-102h-51c0,76.8-23.9,95.1-32.7,102h-43.8c-14.1,0-25.5,11.4-25.5,25.5c0,14.1,11.4,25.5,25.5,25.5h408
		c14.1,0,25.5-11.4,25.5-25.5C666,796,654.6,784.5,640.6,784.5L640.6,784.5z"/>
	<path class="st2" d="M640.6,784.5"/>
</g>
</svg>
