<?xml version="1.0" encoding="utf-8"?>
<!-- Generator: Adobe Illustrator 21.0.0, SVG Export Plug-In . SVG Version: 6.00 Build 0)  -->
<svg version="1.1" id="图层_1" xmlns="http://www.w3.org/2000/svg" xmlns:xlink="http://www.w3.org/1999/xlink" x="0px" y="0px"
	 width="850.5px" height="589.5px" viewBox="0 0 850.5 589.5" style="enable-background:new 0 0 850.5 589.5;" xml:space="preserve"
	>
<style type="text/css">
	.st0{fill:#BA9A1A;}
</style>
<g>
	<g>
		<path class="st0" d="M15.6,13.1v51.2H502v384H344.4c-11.4-44-50.9-76.8-98.4-76.8c-47.4,0-87,32.8-98.4,76.8H118v-128H66.8v179.2
			h80.8c11.4,44,50.9,76.8,98.4,76.8c47.4,0,87-32.8,98.4-76.8h212.8c11.4,44,50.9,76.8,98.4,76.8c47.4,0,87-32.8,98.4-76.8h80.8
			V290.7l-1.6-4L782,133.1l-5.6-17.6H553.2V13.1H15.6z M41.2,115.5v51.2h230.4v-51.2H41.2z M553.2,166.7h186.4l44,131.2v150.4H754
			c-11.4-44-50.9-76.8-98.4-76.8c-47.4,0-87,32.8-98.4,76.8h-4V166.7z M66.8,217.9v51.2h153.6v-51.2H66.8z M246,422.7
			c28.6,0,51.2,22.6,51.2,51.2c0,28.6-22.6,51.2-51.2,51.2s-51.2-22.6-51.2-51.2C194.8,445.3,217.4,422.7,246,422.7L246,422.7z
			 M655.6,422.7c28.6,0,51.2,22.6,51.2,51.2c0,28.6-22.6,51.2-51.2,51.2c-28.6,0-51.2-22.6-51.2-51.2
			C604.4,445.3,627,422.7,655.6,422.7L655.6,422.7z"/>
	</g>
</g>
</svg>
