<?xml version="1.0" encoding="utf-8"?>
<!-- Generator: Adobe Illustrator 21.0.0, SVG Export Plug-In . SVG Version: 6.00 Build 0)  -->
<svg version="1.1" id="图层_1" xmlns="http://www.w3.org/2000/svg" xmlns:xlink="http://www.w3.org/1999/xlink" x="0px" y="0px"
	 width="802.5px" height="649.5px" viewBox="0 0 802.5 649.5" style="enable-background:new 0 0 802.5 649.5;" xml:space="preserve"
	>
<style type="text/css">
	.st0{fill:#BA9A1A;}
</style>
<g>
	<path class="st0" d="M94,17.5v93.6l-72,96l-4.8,6.4v8.8c0,42.1,34.7,76.8,76.8,76.8v332.8h409.6V401.5h51.2v230.4h153.6V299.1
		c42.1,0,76.8-34.7,76.8-76.8v-8.8l-4.8-6.4l-72-96V17.5H94z M145.2,68.7h512v25.6h-512V68.7z M132.4,145.5H670l61.6,82.4
		c-2.8,11.1-11.2,20-23.2,20c-14.2,0-25.6-11.4-25.6-25.6h-51.2c0,14.2-11.4,25.6-25.6,25.6s-25.6-11.4-25.6-25.6h-51.2
		c0,14.2-11.4,25.6-25.6,25.6S478,236.5,478,222.3h-51.2c0,14.2-11.4,25.6-25.6,25.6c-14.2,0-25.6-11.4-25.6-25.6h-51.2
		c0,14.2-11.4,25.6-25.6,25.6c-14.2,0-25.6-11.4-25.6-25.6H222c0,14.2-11.4,25.6-25.6,25.6s-25.6-11.4-25.6-25.6h-51.2
		c0,14.2-11.4,25.6-25.6,25.6c-12,0-20.4-8.9-23.2-20L132.4,145.5z M145.2,279.1c14,12.8,32.2,19.9,51.2,20c19.6,0,37.6-7.7,51.2-20
		c14,12.8,32.2,19.9,51.2,20c19.6,0,37.6-7.7,51.2-20c14,12.8,32.2,19.9,51.2,20c19.6,0,37.6-7.7,51.2-20c14,12.8,32.2,19.9,51.2,20
		c19.6,0,37.6-7.7,51.2-20c14,12.8,32.2,19.9,51.2,20c19.6,0,37.6-7.7,51.2-20v301.6H606V350.3H452.4v230.4H145.2V279.1z
		 M196.4,350.3v179.2h204.8V350.3H196.4z M247.6,401.5H350v76.8H247.6V401.5z"/>
</g>
</svg>
