<?xml version="1.0" encoding="utf-8"?>
<!-- Generator: Adobe Illustrator 21.0.0, SVG Export Plug-In . SVG Version: 6.00 Build 0)  -->
<svg version="1.1" id="图层_1" xmlns="http://www.w3.org/2000/svg" xmlns:xlink="http://www.w3.org/1999/xlink" x="0px" y="0px"
	 width="822px" height="764px" viewBox="0 0 822 764" style="enable-background:new 0 0 822 764;" xml:space="preserve">
<style type="text/css">
	.st0{fill:#4A6DB4;}
</style>
<g>
	<g>
		<path class="st0" d="M37.7,532.7l250.7-1.7l0.4,52.7l-85.2,0.7l1,103l286.2,1l19.4-207.2l-14.4-1.8c0,0-47,47.3-124.8,14.2
			c-38.9-16.6-53.2-49.5-57.1-78.4c-10.9-83.5,66.9-115.8,64.6-127.4c-1.4-7-33.3-36.5-24.5-78.1c7.8-37.1,25.6-55.3,48.8-67.6
			c23.2-12.3,44.3-10.1,44.3-10.1C426.1-20.1,661-0.3,624.3,130.8c0,0,63.7,1.5,80.4,62c16.7,60.5-21.1,96.6-21.1,96.6
			s65.1,35.8,62.9,111.1c-2.1,75.3-63.3,106.9-95,107.2c-31.6,0.2-55.6-10.5-56.2-10.8L560.1,480l-11.8-0.3l15.1,207.6l221.1-0.6
			l0.6,52.3l-747-0.1l-0.4-50.5l94.2,0.1V583l-94.9,0.4L37.7,532.7z M37.7,532.7"/>
	</g>
</g>
</svg>
