<?xml version="1.0" encoding="utf-8"?>
<!-- Generator: Adobe Illustrator 21.0.0, SVG Export Plug-In . SVG Version: 6.00 Build 0)  -->
<svg version="1.1" id="图层_1" xmlns="http://www.w3.org/2000/svg" xmlns:xlink="http://www.w3.org/1999/xlink" x="0px" y="0px"
	 width="810px" height="832px" viewBox="0 0 810 832" style="enable-background:new 0 0 810 832;" xml:space="preserve">
<style type="text/css">
	.st0{fill:#4A6DB4;}
	.st1{fill:none;}
</style>
<g>
	<path class="st0" d="M500.6,197.1v-69.2c0-10.3-8.4-18.7-18.7-18.8H327.7c-10.3,0-18.7,8.4-18.7,18.8v69.2H206.2v-69.2
		c0-67.1,54.5-121.7,121.5-121.7h154.2c67,0,121.5,54.6,121.5,121.7v69.2H500.6z M500.6,197.1"/>
	<path class="st0" d="M722.3,257.3h-635c-18.6,0-36.4,7.4-49.6,20.5c-13.2,13.2-20.5,31-20.5,49.6v307.5c-0.2,11.8-0.2,23.5,0,35.2
		v85.1c0,18.6,7.4,36.4,20.5,49.6c13.2,13.2,31,20.5,49.6,20.5h635c38.7,0,70.2-31.4,70.2-70.1V327.5c0-18.6-7.4-36.4-20.6-49.6
		C758.7,264.7,740.9,257.3,722.3,257.3L722.3,257.3z M404.8,713.2c-94.9,0-171.9-76.9-171.9-171.8c0-94.9,77-171.8,171.9-171.8
		c94.9,0,171.9,76.9,171.9,171.8C576.7,636.2,499.7,713.2,404.8,713.2L404.8,713.2z M404.8,713.2"/>
	<rect x="17.1" y="5.6" class="st1" width="775.9" height="820.7"/>
	<path class="st0" d="M432.9,444.6h-56.2v68.5h-68.5v56.2h68.5v68.5h56.2v-68.5h68.5v-56.2h-68.5V444.6z M432.9,444.6"/>
</g>
</svg>
