<?xml version="1.0" encoding="utf-8"?>
<!-- Generator: Adobe Illustrator 21.0.0, SVG Export Plug-In . SVG Version: 6.00 Build 0)  -->
<svg version="1.1" id="图层_1" xmlns="http://www.w3.org/2000/svg" xmlns:xlink="http://www.w3.org/1999/xlink" x="0px" y="0px"
	 width="656px" height="840px" viewBox="0 0 656 840" style="enable-background:new 0 0 656 840;" xml:space="preserve">
<style type="text/css">
	.st0{fill:#173079;}
	.st1{fill:#C09E15;}
</style>
<g>
	<path class="st0" d="M516.5,533.7c21.4-3,47.2-7.3,62.1-28.4c14.9-21.2,10.3-47.4,6.3-70.4c-2-11.5-4.5-25.7-2.5-32.2
		c1.8-5.6,11.4-15.2,19.2-22.8c15.9-15.7,35.8-35.3,35.8-62.4s-19.8-46.6-35.8-62.4c-7.8-7.7-17.4-17.2-19.2-22.8
		c-2-6.5,0.5-20.8,2.5-32.2c4-23,8.6-49.2-6.3-70.4c-15.4-22-42.6-25.8-64.4-28.8c-10.7-1.5-24-3.3-28.6-6.8
		c-4.7-3.5-10.8-16.8-15.2-26.4c-9.9-21.6-21.2-46.1-46.4-54.6c-25-8.4-48.8,5-68,15.7c-9.8,5.4-21.9,12.2-28,12.2
		s-18.3-6.8-28-12.2c-19.2-10.7-43.1-24.1-67.9-15.7c-25.3,8.5-36.6,33-46.5,54.6c-4.5,9.7-10.6,22.9-15.2,26.4
		c-4.6,3.5-17.9,5.4-28.6,6.8c-21.9,3.1-49.1,6.9-64.4,28.8c-14.9,21.2-10.3,47.3-6.3,70.4c2,11.5,4.5,25.8,2.5,32.3
		c-1.8,5.6-11.4,15.2-19.2,22.8c-15.9,15.7-35.8,35.3-35.8,62.4s19.8,46.6,35.8,62.4c7.8,7.7,17.4,17.2,19.2,22.8
		c2,6.5-0.5,20.8-2.5,32.2c-4,23-8.6,49.1,6.3,70.3c14.9,21.2,40.7,25.5,62.2,28.5l-92.8,187c-4.3,8.7-3.3,19,2.6,26.7
		c5.9,7.8,15.6,11.5,25.2,9.7l85.8-15.6l43,74.8c4.6,8,13.2,12.9,22.4,12.9h0.8c9.5-0.3,18.1-5.7,22.4-14.2l102-204.8
		c0.8-1.9,1.3-3.9,1.6-5.9c1.1,0.6,2.3,1.2,3.3,1.9c19.2,10.7,43.1,24.1,67.9,15.7c25.2-8.5,36.5-33,46.5-54.6
		c0.8-1.8,1.7-3.7,2.6-5.6l67.2,136l-53.3-9.7c-10.8-2.1-21.7,2.9-27.1,12.5l-27.9,48.6l-29.2-59c-6.3-12.7-21.8-18-34.5-11.7
		c-6.1,3-10.8,8.2-13,14.7c-2.2,6.4-1.8,13.5,1.2,19.6L407,815.2c4.2,8.5,12.8,14,22.3,14.3h0.8c9.2,0,17.8-4.9,22.4-12.9l42.9-74.8
		l85.7,15.6c9.5,1.8,19.3-1.9,25.2-9.6c5.9-7.7,6.9-18.1,2.7-26.8L516.5,533.7z M224.2,749.3l-28.1-48.8
		c-5.4-9.6-16.3-14.6-27.1-12.5l-53.4,9.7l67.2-135.9c0.9,1.9,1.8,3.8,2.6,5.5c10,21.6,21.2,46.1,46.5,54.6
		c5.2,1.7,10.7,2.6,16.2,2.6c16.5,0,32.1-7.6,45.8-15.1L224.2,749.3z M423.4,546c-4.1,8.9-11.7,25.4-15.8,27.4
		c-4.6-0.3-18.2-7.2-26.4-11.8c-15.8-8.8-33.7-18.8-53.4-18.8c-19.6,0-37.6,10-53.3,18.8c-8.2,4.6-21.7,13.1-26,11.8
		c-4.5-2.1-12.1-18.6-16.2-27.4c-7.8-17-15.9-34.6-30.9-45.9c-15.3-11.6-35.2-14.4-52.7-16.8c-8.7-1.2-26.7-3.7-29.2-7.3
		c-2.8-4,0.6-23.2,2.2-32.4c3.1-17.7,6.6-37.9,0.9-56.1c-5.6-17.8-19-31.1-32.1-43.9c-8.2-8.1-20.6-20.3-20.6-26.1
		c0-5.8,12.4-18,20.6-26c13-12.8,26.5-26.1,32.1-44c5.7-18.3,2.2-38.4-0.9-56.2c-1.6-9.2-5-28.4-2.2-32.4c2.5-3.6,20.6-6.1,29.2-7.3
		c17.5-2.4,37.4-5.2,52.7-16.8c15-11.3,23.1-28.9,30.9-45.9c4.1-8.9,11.7-25.4,15.8-27.4c0.1,0,0.3,0,0.4,0c5,0,18.1,7.3,26,11.8
		c15.8,8.8,33.7,18.8,53.4,18.8c19.6,0,37.5-10,53.3-18.8c8.2-4.6,22.6-12,26-11.9c4.5,2.1,12.1,18.6,16.2,27.4
		c7.8,17,15.9,34.6,30.9,45.9c15.3,11.6,35.2,14.3,52.7,16.8c8.7,1.2,26.7,3.7,29.3,7.3c2.8,4-0.6,23.2-2.2,32.4
		c-3.1,17.8-6.6,37.9-0.9,56.2c5.6,17.8,19,31.1,32.1,43.9c8.2,8.1,20.6,20.3,20.6,26c0,5.8-12.4,18-20.6,26.1
		c-13,12.8-26.5,26.1-32.1,44c-5.7,18.2-2.2,38.4,0.9,56.1c1.6,9.2,5,28.4,2.2,32.4c-2.5,3.6-20.6,6.1-29.2,7.3
		c-17.5,2.5-37.4,5.2-52.7,16.8C439.4,511.4,431.3,529,423.4,546L423.4,546z"/>
	<path class="st1" d="M327.9,125.2c-99.5,0-180.6,80.4-180.6,179.2s81,179.2,180.6,179.2s180.6-80.4,180.6-179.2
		C508.4,205.6,427.4,125.2,327.9,125.2L327.9,125.2z M327.9,432.4c-71.1,0-129-57.4-129-128s57.9-128,129-128s129,57.4,129,128
		C456.8,375,399,432.4,327.9,432.4L327.9,432.4z"/>
</g>
</svg>
