<?xml version="1.0" encoding="utf-8"?>
<!-- Generator: Adobe Illustrator 21.0.0, SVG Export Plug-In . SVG Version: 6.00 Build 0)  -->
<svg version="1.1" id="图层_1" xmlns="http://www.w3.org/2000/svg" xmlns:xlink="http://www.w3.org/1999/xlink" x="0px" y="0px"
	 width="752px" height="572px" viewBox="0 0 752 572" style="enable-background:new 0 0 752 572;" xml:space="preserve">
<style type="text/css">
	.st0{fill:#4A6DB4;}
</style>
<g>
	<path class="st0" d="M679.4,10.2H72.6c-35,0-55.2,29-55.2,64.5v45.8h717.1V74.8C734.5,39.2,714.3,10.2,679.4,10.2L679.4,10.2z
		 M679.4,10.2"/>
	<path class="st0" d="M17.5,497.2c0,6.8,1,13.3,2.4,19.4c22.1-199,190.6-175.5,190.6-175.5v-82.7l137.9,110.3L210.5,506.6v-82.7
		c0,0-101.4-27.7-181,115.2c9.4,13.8,23.9,22.7,43.2,22.7h606.7c35,0,55.2-29,55.2-64.5v-294H17.5V497.2z M17.5,497.2"/>
</g>
</svg>
