<?xml version="1.0" encoding="utf-8"?>
<!-- Generator: Adobe Illustrator 21.0.0, SVG Export Plug-In . SVG Version: 6.00 Build 0)  -->
<svg version="1.1" id="图层_1" xmlns="http://www.w3.org/2000/svg" xmlns:xlink="http://www.w3.org/1999/xlink" x="0px" y="0px"
	 width="781.5px" height="795px" viewBox="0 0 781.5 795" style="enable-background:new 0 0 781.5 795;" xml:space="preserve">
<style type="text/css">
	.st0{fill:#4A6DB4;}
</style>
<g>
	<g>
		<path class="st0" d="M691.1,509.4h-81.5l-88.4-160.9l151.2-91.8l78.7,143c12.4,22.9,12.4,50.5,0,73.3
			c-12,22.4-35.3,36.4-60.7,36.5L691.1,509.4z M387.8,252.1l57.3-33.8l-41.6-74.8c20.5-37.4,40.7-74.1,40.7-74.1
			c11.6-22.7,34.9-37,60.4-37c25.5,0,48.8,14.3,60.4,37c9,16.1,31.1,56.7,31.1,56.7l56.7-34.4l-88.2,160.4H387.8z M429.1,59.9
			c-20.9,37.6-135.3,245.8-135.3,245.8l-152.3-92.3c0,0,72.8-134.5,92.2-167.4c10.6-19.6,30.9-32,53.1-32.5h219.1
			C473.7,13.5,444.1,31.4,429.1,59.9L429.1,59.9z M191.9,309.3l88.6,160.8l-56.8-34.2L137,593.3c-16.1,29.3-16.1,64.8,0,94.1
			L27.3,488.2c-10.9-19.9-10.9-44.1,0-64L71.5,344l-56.4-34.8L191.9,309.3z M192.6,530.9h177v183.8H212.3
			c-25.4-0.1-48.7-14.1-60.7-36.5c-12.4-22.9-12.4-50.5,0-73.3L192.6,530.9z M515.3,528.9h173.3c32.6-0.1,62.4-18,77.8-46.7
			L657.1,680.7c-10.5,19.7-31,32-53.4,32h-88.3v68.7l-88.3-160.8l88.4-160.8L515.3,528.9z M515.3,528.9"/>
	</g>
</g>
</svg>
