<?xml version="1.0" encoding="utf-8"?>
<!-- Generator: Adobe Illustrator 21.0.0, SVG Export Plug-In . SVG Version: 6.00 Build 0)  -->
<svg version="1.1" id="图层_1" xmlns="http://www.w3.org/2000/svg" xmlns:xlink="http://www.w3.org/1999/xlink" x="0px" y="0px"
	 width="736px" height="682px" viewBox="0 0 736 682" style="enable-background:new 0 0 736 682;" xml:space="preserve">
<style type="text/css">
	.st0{fill:#C09E15;}
</style>
<g>
	<g>
		<path class="st0" d="M19.8,532.1c0-15.1,18.3-27.3,40.9-27.3h600.9c22.6,0,40.9,12.3,40.9,27.3c0,15.1-18.3,27.3-40.9,27.3H60.7
			C38.1,559.4,19.8,547.2,19.8,532.1L19.8,532.1z M88.1,641.4c0-15.1,18.3-27.3,41.1-27.3h464c22.7,0,41.1,12.3,41.1,27.3
			c0,15.1-18.3,27.3-41.1,27.3h-464C106.5,668.7,88.1,656.4,88.1,641.4L88.1,641.4z M327,54.3c47.8-34.1,88.7-41,143.4-41
			c135.7,0,245.8,110,245.8,245.8h-3.7c6.6,11.5,4,26-6.1,34.6c-10.1,8.5-24.9,8.5-35.1,0c-10.1-8.5-12.7-23.1-6.1-34.6h-3.6
			C661.6,153.5,576,68,470.5,68c-34.1,0-68.3,6.8-95.6,27.3C361.2,109,354.4,109,347.6,109c-20.5,0-27.3-13.7-27.3-27.3
			C320.2,67.9,318.7,60.2,327,54.3L327,54.3z M484,231.8c6.8-6.8,13.7-13.6,27.3-13.7c13.7,0,20.5,6.8,27.3,13.7l149.8,163.8
			c7.3,7.1,14.1,13.7,14.1,20.5c0,13.7-6.8,34.1-27.3,34.1c-13.7,0-20.5-6.8-27.3-14.1L511.3,286.4l-61.4,61.4
			c-3.5,3.5-13.7,20.5-34.2,20.5s-30-14.4-34.1-20.5l-116-170.7L81.3,443.3c-6.8,13.7-20.5,20.5-34.1,20.5
			c-13.7,0-27.3-13.7-27.3-27.7c0-7.2,0-20.1,6.8-26.9l204.8-291.4c13.7-15.8,20.5-22.6,34.1-22.6c13.7,0,27.3,13.7,34.1,27.3
			l116,177.5L484,231.8z"/>
	</g>
</g>
</svg>
