<?xml version="1.0" encoding="utf-8"?>
<!-- Generator: Adobe Illustrator 21.0.0, SVG Export Plug-In . SVG Version: 6.00 Build 0)  -->
<svg version="1.1" id="图层_1" xmlns="http://www.w3.org/2000/svg" xmlns:xlink="http://www.w3.org/1999/xlink" x="0px" y="0px"
	 width="844px" height="816px" viewBox="0 0 844 816" style="enable-background:new 0 0 844 816;" xml:space="preserve">
<style type="text/css">
	.st0{fill:#4A6DB4;}
</style>
<g>
	<g>
		<path class="st0" d="M798.4,119.7c11.7-35,9.5-61.9-6.6-80.9c-19-16-46-18.2-81.1-6.6c-35,11.6-66.4,31.3-94.1,59L529,178.7
			L164.8,91.8c-5.9-1.8-11.3-0.4-16.4,4.3l-70,70c-4.1,4.1-5.6,8.9-5,14.8c1.1,5.9,4.2,10.2,9.3,13.1l278.2,152.6L219.1,488.2
			l-106.3-28.9c-0.8-0.4-2.2-0.5-4.4-0.5c-5.1,0-9.3,1.7-12.6,5l-52.6,52.9c-3.7,4.3-5.3,8.9-5,13.6c0.8,5.9,3.1,10.1,7.1,12.6
			l138,103.3L286.9,784c3.3,4.1,7.7,6.4,13.1,7.1h1.1c5.1,0,9.3-1.7,12.6-4.9l52.6-52.5c4.7-5.1,6.2-10.7,4.4-16.9l-29-106.1
			L483.5,469l152.8,277.8c2.2,4.7,6,7.6,11.5,8.8c1,0.4,2.4,0.5,3.8,0.5c4.3,0,7.9-1.1,10.4-3.3l70.1-52.5
			c6.2-5.1,8.4-11.1,6.6-18.1l-87.7-380.5l88.1-88.1C766.9,186,786.7,154.6,798.4,119.7L798.4,119.7z M798.4,119.7"/>
	</g>
</g>
</svg>
