<?xml version="1.0" encoding="utf-8"?>
<!-- Generator: Adobe Illustrator 21.0.0, SVG Export Plug-In . SVG Version: 6.00 Build 0)  -->
<svg version="1.1" id="图层_1" xmlns="http://www.w3.org/2000/svg" xmlns:xlink="http://www.w3.org/1999/xlink" x="0px" y="0px"
	 width="657px" height="643.5px" viewBox="0 0 657 643.5" style="enable-background:new 0 0 657 643.5;" xml:space="preserve">
<style type="text/css">
	.st0{fill:#BA9A1A;}
</style>
<g>
	<g>
		<path class="st0" d="M21.3,14.5v204.8h76.8v204.8H21.3v204.8h204.8v-76.8h204.8v76.8h204.8V424.1h-76.8V219.3h76.8V14.5H430.9
			v76.8H226.1V14.5H21.3z M72.5,65.7h102.4v102.4H72.5V65.7z M482.1,65.7h102.4v102.4H482.1V65.7z M226.1,142.5h204.8v76.8h76.8
			v204.8h-76.8v76.8H226.1v-76.8h-76.8V219.3h76.8C226.1,219.3,226.1,142.5,226.1,142.5z M482.1,475.3h102.4v102.4H482.1V475.3z"/>
	</g>
</g>
</svg>
