<?xml version="1.0" encoding="utf-8"?>
<!-- Generator: Adobe Illustrator 21.0.0, SVG Export Plug-In . SVG Version: 6.00 Build 0)  -->
<svg version="1.1" id="图层_1" xmlns="http://www.w3.org/2000/svg" xmlns:xlink="http://www.w3.org/1999/xlink" x="0px" y="0px"
	 width="800px" height="752px" viewBox="0 0 800 752" style="enable-background:new 0 0 800 752;" xml:space="preserve">
<style type="text/css">
	.st0{fill:#4A6DB4;}
</style>
<g>
	<g>
		<path class="st0" d="M727.2,651.2h-49.8v-41.7H127.3v41.7H79.2v40.1H42.3V733h720.2v-41.7h-35.3L727.2,651.2z M246,575.8V367.2
			h24.1v-27.4c0-16.8-13.6-30.3-30.3-30.3H133.6c-16.8,0-30.3,13.6-30.3,30.3v27.4h25.7v208.6H246z M677.5,575.8V367.2h25.6v-27.4
			c0-16.8-13.6-30.3-30.3-30.3H566.7c-16.8,0-30.3,13.6-30.3,30.4v27.4H562v208.5H677.5z M460.9,575.8V367.2h25.7v-27.4
			c0-16.8-13.6-30.3-30.3-30.3H350.1c-16.8,0-30.3,13.6-30.3,30.3v27.4h24v208.6H460.9z M427.7,26.2c-17.3-9.6-38.2-9.6-55.5,0
			l-319,176.5c-20.6,11.4-33.3,33-33.3,56.5V279h760.3v-19.8c0-23.5-12.8-45.2-33.3-56.5L427.7,26.2z M279,192.4
			c-3.2,0-5.9-2.1-6.7-5.2c-0.8-3.1,0.6-6.3,3.4-7.8l96.4-53.4c17.3-9.6,38.3-9.6,55.6,0l96.4,53.4c2.8,1.5,4.2,4.7,3.4,7.8
			c-0.8,3.1-3.5,5.2-6.7,5.2H279L279,192.4z M279,192.4"/>
	</g>
</g>
</svg>
