<?xml version="1.0" encoding="utf-8"?>
<!-- Generator: Adobe Illustrator 21.0.0, SVG Export Plug-In . SVG Version: 6.00 Build 0)  -->
<svg version="1.1" id="图层_1" xmlns="http://www.w3.org/2000/svg" xmlns:xlink="http://www.w3.org/1999/xlink" x="0px" y="0px"
	 width="603px" height="682px" viewBox="0 0 603 682" style="enable-background:new 0 0 603 682;" xml:space="preserve">
<style type="text/css">
	.st0{fill:#4A6DB4;}
</style>
<g>
	<g>
		<path class="st0" d="M11.4,499.3c-0.1,29.9,13.2,58.3,36.4,77.3v62.5c-0.3,9.6,3.5,18.9,10.4,25.6c6.9,6.7,16.4,10.2,26,9.5h36.4
			c9.6,0.5,18.9-3,25.7-9.7c6.8-6.7,10.6-15.9,10.3-25.5V605h290.1v34.1c-0.3,9.6,3.5,18.9,10.4,25.6c6.9,6.7,16.4,10.2,26,9.5h36.4
			c9.6,0.6,19-2.9,25.9-9.6c6.9-6.7,10.6-16,10.3-25.6V576c22.9-18.9,36.2-47,36.2-76.6V148.1C591.6,24.7,461.1,7.7,301.5,7.7
			C141.9,7.7,11.4,24.7,11.4,148.1V499.3z M134.6,529.9c-28.3,0-51.2-22.9-51.2-51.2c0-28.3,22.9-51.2,51.2-51.2
			c28.3,0,51.2,22.9,51.2,51.2C185.8,507,162.9,529.9,134.6,529.9L134.6,529.9z M475.9,529.9c-29.9,1.1-55.4-21.4-58-51.2
			c3.9-29.1,28.7-50.8,58-50.8c29.3,0,54.2,21.7,58,50.8c-2.6,29.9-28.3,52.5-58.4,51.2H475.9z M519.4,326.8H83.9V152.7h435.2
			L519.4,326.8z M519.4,326.8"/>
	</g>
</g>
</svg>
