<?xml version="1.0" encoding="utf-8"?>
<!-- Generator: Adobe Illustrator 21.0.0, SVG Export Plug-In . SVG Version: 6.00 Build 0)  -->
<svg version="1.1" id="图层_1" xmlns="http://www.w3.org/2000/svg" xmlns:xlink="http://www.w3.org/1999/xlink" x="0px" y="0px"
	 width="795px" height="780px" viewBox="0 0 795 780" style="enable-background:new 0 0 795 780;" xml:space="preserve">
<style type="text/css">
	.st0{fill:#4A6DB4;}
</style>
<g>
	<g>
		<path class="st0" d="M397.4,764.6C236,764.6,21.2,727.9,29,489.4c4.1-123.2,111.1-238.6,238.1-288.6
			c-51.3-48.2-51.6-96.2-51.6-96.2c0-97.9,182-89,182-89s182-8.8,182,89c0,0-0.4,45.4-52.3,97.4c126.2,51.6,234.6,169.6,238.7,292.5
			C773.8,733.1,558.7,764.6,397.4,764.6L397.4,764.6z M485.5,390.1c12.2-4.1,18.7-17.3,14.7-29.5c-8.6-25.7-34.3-55.1-79.5-62.7
			v-25.8c0-12.8-10.4-23.3-23.3-23.3c-12.8,0-23.3,10.4-23.3,23.3v26.7c-38,9-67.1,39-71,77.2c-3.8,36.9,17.4,85.2,89.5,100.3
			c35.5,7.5,55.2,26.1,52.7,50c-2,19.1-19.1,38.4-48,38.4c-35.1,0-53.5-17.8-58.6-33c-4.1-12.2-17.3-18.8-29.4-14.7
			c-12.2,4.1-18.8,17.3-14.7,29.4c8.6,25.7,34.3,55.1,79.5,62.8v25.8c0,12.8,10.4,23.3,23.3,23.3c12.8,0,23.3-10.4,23.3-23.3v-26.8
			c38-9,67.1-39,71-77.2c3.8-36.9-17.4-85.2-89.5-100.3c-35.5-7.5-55.2-26.1-52.7-50c2-19.1,19.1-38.5,48-38.5
			c35.1,0,53.5,17.8,58.6,33C460.1,387.6,473.3,394.2,485.5,390.1L485.5,390.1z M485.5,390.1"/>
	</g>
</g>
</svg>
