<?xml version="1.0" encoding="utf-8"?>
<!-- Generator: Adobe Illustrator 21.0.0, SVG Export Plug-In . SVG Version: 6.00 Build 0)  -->
<svg version="1.1" id="图层_1" xmlns="http://www.w3.org/2000/svg" xmlns:xlink="http://www.w3.org/1999/xlink" x="0px" y="0px"
	 width="660px" height="757.5px" viewBox="0 0 660 757.5" style="enable-background:new 0 0 660 757.5;" xml:space="preserve">
<style type="text/css">
	.st0{fill:#BA9A1A;}
	.st1{fill:none;}
</style>
<g>
	<path d="M534.4,378.4h76.2v-51.2l-76.2-0.1V378.4L534.4,378.4z M534.4,327.2l76.2,0.1v51.2h-76.3L534.4,327.2z"/>
	<path class="st0" d="M534.5,659.9v25.6h77.3c7.1,0,12.8-5.7,12.8-12.8l-0.1-141.2v-41.1l-0.1-87.5v-37.2h-25.6
		c0.1,98,0.1,196.1,0.2,294.1L534.5,659.9L534.5,659.9z"/>
	<path class="st0" d="M99.2,736.7c-14.1,0-25.6-11.5-25.6-25.6V45.5c0-14.1,11.5-25.6,25.6-25.6h435.3c14.1,0,25.6,11.5,25.6,25.6
		v665.6c0,14.1-11.5,25.6-25.6,25.6H99.2z M124.8,685.5h384.1V71.1H124.8V685.5z"/>
	<path class="st0" d="M585.7,19.9H48.1c-14.1,0-25.6,11.5-25.6,25.6S34,71.1,48.1,71.1h537.6c14.1,0,25.6-11.5,25.6-25.6
		C611.3,31.3,599.8,19.9,585.7,19.9L585.7,19.9z M355.3,301.5h102.4v-51.2H355.2L355.3,301.5z"/>
	<rect x="22.6" y="19.8" class="st1" width="614.9" height="717.8"/>
	<rect x="586" y="301.4" class="st0" width="51.2" height="128.5"/>
	<path class="st0" d="M73.7,403.9V122.3h486.4v281.6H73.7z M124.9,352.7h384V173.5h-384V352.7z"/>
	<path class="st0" d="M210.2,326.8l-10.2-0.1l21.5-48.1h-46l68.9-79.8h10.7l-22,47.7h44.7L210.2,326.8z"/>
	<rect x="598.5" y="275.6" class="st0" width="25.6" height="52.8"/>
</g>
</svg>
