<?xml version="1.0" encoding="utf-8"?>
<!-- Generator: Adobe Illustrator 21.0.0, SVG Export Plug-In . SVG Version: 6.00 Build 0)  -->
<svg version="1.1" id="图层_1" xmlns="http://www.w3.org/2000/svg" xmlns:xlink="http://www.w3.org/1999/xlink" x="0px" y="0px"
	 width="656px" height="694px" viewBox="0 0 656 694" style="enable-background:new 0 0 656 694;" xml:space="preserve">
<style type="text/css">
	.st0{fill:#BA9A1A;}
</style>
<g>
	<g>
		<path class="st0" d="M20.8,14.2v665.6h281.6V577.4h51.2v102.4h281.6V14.2H20.8z M72,65.4h512v563.2H404.8V526.2H251.2v102.4H72
			V65.4z M123.2,116.6v51.2h102.4v-51.2H123.2z M276.8,116.6v51.2h102.4v-51.2H276.8z M430.4,116.6v51.2h102.4v-51.2H430.4z
			 M123.2,219v51.2h102.4V219H123.2z M276.8,219v51.2h102.4V219H276.8z M430.4,219v51.2h102.4V219H430.4z M123.2,321.4v51.2h102.4
			v-51.2H123.2z M276.8,321.4v51.2h102.4v-51.2H276.8z M430.4,321.4v51.2h102.4v-51.2H430.4z M123.2,423.8V475h102.4v-51.2
			C225.6,423.8,123.2,423.8,123.2,423.8z M276.8,423.8V475h102.4v-51.2C379.2,423.8,276.8,423.8,276.8,423.8z M430.4,423.8V475
			h102.4v-51.2C532.8,423.8,430.4,423.8,430.4,423.8z M123.2,526.2v51.2h102.4v-51.2H123.2z M430.4,526.2v51.2h102.4v-51.2H430.4z"
			/>
	</g>
</g>
</svg>
