<?xml version="1.0" encoding="utf-8"?>
<!-- Generator: Adobe Illustrator 21.0.0, SVG Export Plug-In . SVG Version: 6.00 Build 0)  -->
<svg version="1.1" id="图层_1" xmlns="http://www.w3.org/2000/svg" xmlns:xlink="http://www.w3.org/1999/xlink" x="0px" y="0px"
	 width="649.5px" height="645px" viewBox="0 0 649.5 645" style="enable-background:new 0 0 649.5 645;" xml:space="preserve">
<style type="text/css">
	.st0{fill:#BA9A1A;}
</style>
<g>
	<g>
		<path class="st0" d="M324.7,14.1l-10.4,4.8l-281.6,128l-15.2,6.4v477.6h281.6V477.3h51.2v153.6h281.6V153.3l-15.2-6.4l-281.6-128
			L324.7,14.1z M324.7,70.1l256,116v393.6H401.5V426.1H247.9v153.6H68.7V186.1L324.7,70.1z M119.9,221.3v51.2h102.4v-51.2H119.9z
			 M273.5,221.3v51.2h102.4v-51.2H273.5z M427.1,221.3v51.2h102.4v-51.2H427.1z M119.9,323.7v51.2h102.4v-51.2H119.9z M273.5,323.7
			v51.2h102.4v-51.2H273.5z M427.1,323.7v51.2h102.4v-51.2H427.1z M119.9,426.1v51.2h102.4v-51.2H119.9z M427.1,426.1v51.2h102.4
			v-51.2H427.1z"/>
	</g>
</g>
</svg>
