<?xml version="1.0" encoding="utf-8"?>
<!-- Generator: Adobe Illustrator 21.0.0, SVG Export Plug-In . SVG Version: 6.00 Build 0)  -->
<svg version="1.1" id="图层_1" xmlns="http://www.w3.org/2000/svg" xmlns:xlink="http://www.w3.org/1999/xlink" x="0px" y="0px"
	 width="825px" height="684px" viewBox="0 0 825 684" style="enable-background:new 0 0 825 684;" xml:space="preserve">
<style type="text/css">
	.st0{fill:#4A6DB4;}
</style>
<g>
	<g>
		<path class="st0" d="M687.5,667V567h-550v100h-125V492h800v175H687.5z M186.7,272.5c36.7-13.3,112.5-20.3,228.9-20.3
			c116.4,0,190.6,7,222.7,20.3c38.3,15.6,78.9,52.3,106.2,86.7c42.2,53.1,68,107.8,68,107.8h-800c3.9-9.4,9.4-18.8,35.2-58.6
			c13.3-19.5,25.8-37.5,39.1-53.9C112.5,320.9,153.1,284.2,186.7,272.5L186.7,272.5z M705.4,249c4.7-6.2,7-12.5,7-19.5
			c0-14.1-9.4-26.6-28.1-37.5c0-0.8-0.8-2.3-0.8-3.1c2.3-3.1,3.9-6.2,3.9-9.4c0-10.2-12.5-19.5-36.7-26.6
			c-24.2-7-53.9-10.9-88.3-10.9s-64.1,3.9-88.3,10.9c-24.2,7-36.7,16.4-36.7,26.6c0,3.1,1.6,6.3,3.9,9.4c-2.3,5.5-3.9,10.2-3.9,15.6
			c0,4.7,1.6,9.4,3.9,14.8c-18.7-6.2-39.1-6.2-57.8,0c2.3-5.5,3.9-10.2,3.9-14.8c0-5.5-1.6-10.2-3.9-15.6c2.3-3.1,3.9-6.2,3.9-9.4
			c0-10.2-12.5-19.5-36.7-26.6c-24.2-7-53.9-10.9-88.3-10.9s-64.1,3.9-88.3,10.9c-24.2,7-36.7,16.4-36.7,26.6c0,3.1,1.6,6.3,3.9,9.4
			c0,0.8-0.8,2.3-0.8,3.1c-18.8,10.9-28.1,23.4-28.1,37.5c0,7,2.3,13.3,7,19.5c-21.1,13.3-32,27.3-32,43h-50V40.4
			C37.5,27.9,47.6,17,60.9,17H764c13.3,0,23.4,10.9,23.4,23.4V292h-50C737.5,276.4,726.5,262.3,705.4,249L705.4,249z M705.4,249"/>
	</g>
</g>
</svg>
