<?xml version="1.0" encoding="utf-8"?>
<!-- Generator: Adobe Illustrator 21.0.0, SVG Export Plug-In . SVG Version: 6.00 Build 0)  -->
<svg version="1.1" id="图层_1" xmlns="http://www.w3.org/2000/svg" xmlns:xlink="http://www.w3.org/1999/xlink" x="0px" y="0px"
	 width="765px" height="672px" viewBox="0 0 765 672" style="enable-background:new 0 0 765 672;" xml:space="preserve">
<style type="text/css">
	.st0{fill:#BA9A1A;}
</style>
<g>
	<path class="st0" d="M382.5,17.2l-18.4,17.6L153.7,245.2H24.1v153.6h32l71.2,237.6l5.6,18.4h499.2l5.6-18.4l71.2-237.6h32V245.2
		H611.3L400.9,34.8L382.5,17.2z M382.5,90l155.2,155.2H227.3L382.5,90L382.5,90z M75.3,296.4h614.4v51.2h-19.2l-5.6,18.4
		l-71.2,237.6H171.3L100.1,366l-5.6-18.4H75.3L75.3,296.4L75.3,296.4z M492.1,354.8L356.9,490l-84-84l-36.8,36.8l102.4,102.4
		l18.4,17.6l18.4-17.6l153.6-153.6L492.1,354.8z"/>
</g>
</svg>
