<?xml version="1.0" encoding="utf-8"?>
<!-- Generator: Adobe Illustrator 21.0.0, SVG Export Plug-In . SVG Version: 6.00 Build 0)  -->
<svg version="1.1" id="图层_1" xmlns="http://www.w3.org/2000/svg" xmlns:xlink="http://www.w3.org/1999/xlink" x="0px" y="0px"
	 width="849px" height="855px" viewBox="0 0 849 855" style="enable-background:new 0 0 849 855;" xml:space="preserve">
<style type="text/css">
	.st0{fill:#173079;}
	.st1{fill:#C09E15;}
</style>
<g>
	<path class="st0" d="M826.6,383.8c-4.8-4.8-11.3-7.5-18.1-7.5H629.3v-76.8c0-6.8-2.7-13.3-7.5-18.1c-4.8-4.8-11.3-7.5-18.1-7.5
		H450.1v-51.2h204.8c9.4,0,18.1-5.2,22.6-13.5s4-18.4-1.3-26.3l-41.7-62.6l41.7-62.6c5.2-7.9,5.7-18,1.3-26.3
		c-4.5-8.3-13.1-13.5-22.6-13.5H424.5c-6.8,0-13.3,2.7-18.1,7.5s-7.5,11.3-7.5,18.1v230.4H245.3c-6.8,0-13.3,2.7-18.1,7.5
		c-4.8,4.8-7.5,11.3-7.5,18.1v76.8H40.5c-6.8,0-13.3,2.7-18.1,7.5c-4.8,4.8-7.5,11.3-7.5,18.1v409.6c0,6.8,2.7,13.3,7.5,18.1
		s11.3,7.5,18.1,7.5h768c6.8,0,13.3-2.7,18.1-7.5s7.5-11.3,7.5-18.1V401.9C834.1,395.1,831.5,388.6,826.6,383.8z M219.7,785.9H66.1
		V427.5h153.6V785.9z M450.1,69.1h157l-24.7,37c-5.7,8.6-5.7,19.8,0,28.4l24.7,37h-157V69.1z M578.1,785.9h-25.6v-76.8
		c0-6.8-2.7-13.3-7.5-18.1s-11.3-7.5-18.1-7.5s-13.3,2.7-18.1,7.5c-4.8,4.8-7.5,11.3-7.5,18.1v76.8H347.7v-76.8
		c0-14.1-11.5-25.6-25.6-25.6s-25.6,11.5-25.6,25.6v76.8h-25.6V325.1h307.2V785.9z M782.9,785.9H629.3V427.5h153.6V785.9z"/>
	<rect x="296.5" y="478.7" class="st0" width="51.2" height="51.2"/>
	<rect x="117.3" y="478.7" class="st0" width="51.2" height="51.2"/>
	<rect x="117.3" y="581.1" class="st0" width="51.2" height="51.2"/>
	<rect x="117.3" y="683.5" class="st0" width="51.2" height="51.2"/>
	<rect x="680.5" y="478.7" class="st0" width="51.2" height="51.2"/>
	<rect x="680.5" y="581.1" class="st0" width="51.2" height="51.2"/>
	<rect x="680.5" y="683.5" class="st0" width="51.2" height="51.2"/>
	<rect x="398.9" y="478.7" class="st1" width="51.2" height="51.2"/>
	<rect x="501.3" y="478.7" class="st0" width="51.2" height="51.2"/>
	<rect x="296.5" y="581.1" class="st0" width="51.2" height="51.2"/>
	<rect x="398.9" y="581.1" class="st1" width="51.2" height="51.2"/>
	<rect x="398.9" y="683.5" class="st1" width="51.2" height="51.2"/>
	<rect x="501.3" y="581.1" class="st0" width="51.2" height="51.2"/>
	<rect x="296.5" y="376.3" class="st0" width="51.2" height="51.2"/>
	<rect x="398.9" y="376.3" class="st1" width="51.2" height="51.2"/>
	<rect x="501.3" y="376.3" class="st0" width="51.2" height="51.2"/>
	<path class="st0" d="M552.5,376.3"/>
</g>
</svg>
