<?xml version="1.0" encoding="utf-8"?>
<!-- Generator: Adobe Illustrator 21.0.0, SVG Export Plug-In . SVG Version: 6.00 Build 0)  -->
<svg version="1.1" id="图层_1" xmlns="http://www.w3.org/2000/svg" xmlns:xlink="http://www.w3.org/1999/xlink" x="0px" y="0px"
	 width="782px" height="854px" viewBox="0 0 782 854" style="enable-background:new 0 0 782 854;" xml:space="preserve">
<style type="text/css">
	.st0{fill:#4A6DB4;}
</style>
<g>
	<path class="st0" d="M25,97.6c0-9.5,7.6-18.7,17.2-20.6c0,0,300.6-59.6,348.5-59.6c47.8,0,349.5,59.7,349.5,59.7
		c9.6,2.2,16.5,10.6,16.8,20.5V409c0,114.4-77,259.8-173.1,323.3c0,0-142.6,104.3-191.1,104.3c-48.5,0-194.3-105.3-194.3-105.3
		C102.7,667.7,25,523.4,25,409V97.6z M365.1,239.7l-77.7,199.9c-2.8,7.1,1.1,13.1,9,13.1H371c7.6,0,12.8,6.2,11.2,14L358,583.3
		c-6.3,30.6,3.2,34.8,21.4,9.5l148.8-207.5c4.6-6.3,1.8-11.5-6-11.7l-93-2.4c-8-0.2-11.6-6.1-8.5-13.2l52.2-118.7
		c3.1-7-0.7-12.8-8.5-12.8h-79.9C376.7,226.5,368,232.4,365.1,239.7L365.1,239.7z M365.1,239.7"/>
</g>
</svg>
