<?xml version="1.0" encoding="utf-8"?>
<!-- Generator: Adobe Illustrator 21.0.0, SVG Export Plug-In . SVG Version: 6.00 Build 0)  -->
<svg version="1.1" id="图层_1" xmlns="http://www.w3.org/2000/svg" xmlns:xlink="http://www.w3.org/1999/xlink" x="0px" y="0px"
	 width="612px" height="698px" viewBox="0 0 612 698" style="enable-background:new 0 0 612 698;" xml:space="preserve">
<style type="text/css">
	.st0{fill:#4A6DB4;}
</style>
<g>
	<path class="st0" d="M526.6,679.8H85.4c-34.8,0-63-28.2-63-63V238.7c0-34.8,28.2-63,63-63h63v-47.3c0-60.9,49.4-110.3,110.3-110.3
		h94.5c60.9,0,110.3,49.4,110.3,110.3v47.3h63c34.8,0,63,28.2,63,63v378.1C589.6,651.6,561.4,679.8,526.6,679.8L526.6,679.8z
		 M180,270.2c-17.4,0-31.5,14.1-31.5,31.5c0,17.4,14.1,31.5,31.5,31.5s31.5-14.1,31.5-31.5c0-8.4-3.3-16.4-9.2-22.3
		C196.3,273.6,188.3,270.2,180,270.2L180,270.2z M400.5,128.4c0-26.1-21.2-47.3-47.3-47.3h-94.5c-12.5,0-24.6,5-33.4,13.8
		c-8.9,8.9-13.8,20.9-13.8,33.4v47.3h189V128.4z M432,270.2c-17.4,0-31.5,14.1-31.5,31.5c0,17.4,14.1,31.5,31.5,31.5
		c17.4,0,31.5-14.1,31.5-31.5C463.5,284.3,449.4,270.2,432,270.2L432,270.2z M432,270.2"/>
</g>
</svg>
