<?xml version="1.0" encoding="utf-8"?>
<!-- Generator: Adobe Illustrator 21.0.0, SVG Export Plug-In . SVG Version: 6.00 Build 0)  -->
<svg version="1.1" id="图层_1" xmlns="http://www.w3.org/2000/svg" xmlns:xlink="http://www.w3.org/1999/xlink" x="0px" y="0px"
	 width="854px" height="856px" viewBox="0 0 854 856" style="enable-background:new 0 0 854 856;" xml:space="preserve">
<style type="text/css">
	.st0{fill:#BA9A1A;}
</style>
<g>
	<g>
		<path class="st0" d="M808,714.5h-2.2c-21.4-36.4-25.5-70.6-12.1-101.8c11.2-26.1,31-40.9,31.8-41.5c8-5.6,10.9-16,7.3-25.1
			c-3.1-7.9-10.8-13.2-19.4-13.2c-1.1,0-2.2,0.1-3.3,0.2c-1.3,0.2-12.5,2-30.9,6.6c-23.9-53.6-27.5-108.2-10.8-162
			c13-41.9,34.3-68.1,34.5-68.4c5.2-6.2,6.4-14.9,3.1-22.3s-10.6-12.2-18.7-12.4c-0.2,0-1.2,0-3,0c-9,0-33.2,0.5-61.9,5
			c-36.2,5.7-66,15.6-88.5,29.6c-1.9-3.2-3.8-6.4-5.8-9.6C552.7,177.7,435.6,108.5,350.7,71.8c-91.5-39.5-164.8-50.5-167.8-50.9
			c-1-0.1-2-0.2-3-0.2c-8.2,0-15.6,4.8-19,12.3c-3.8,8.4-1.7,18.6,5.2,24.7c0.7,0.6,69.8,62.6,113.6,175.5c5,12.8,9.4,25.8,13.4,39
			C213.6,214.7,127.7,214,124,214c-8.3,0-15.8,5-19.1,12.6c-3.3,7.6-1.9,16.5,3.6,22.8c13.7,15.3,45,61.7,65.1,127.4
			c14.8,48.2,21.7,99.6,20.7,152.8c0,2.6-0.1,5.1-0.2,7.7c-80.9-37.9-147.3-48.7-150.2-49.1c-1.1-0.2-2.2-0.3-3.3-0.3
			c-7.9,0-15.3,4.6-18.8,11.8c-4,8.3-2.2,18.2,4.5,24.5c0.7,0.7,70.1,67.9,97.1,190.3H44.9c-11.8,0-21.7,9.8-21.7,21.5v78.8
			c0,11.3,9.7,20.4,21.7,20.4H808c11.7,0,20.4-8.8,20.4-20.4v-78.8C828.4,724.1,819.3,714.5,808,714.5L808,714.5z M164.2,704.8
			c-15.8-71.6-44.7-125.7-68-160.2c32.8,10.1,64.5,22.9,94.6,37.9C186.2,622.4,177.2,663.5,164.2,704.8L164.2,704.8z M758.7,714.5
			h-64.9c4.4-16.8,12.9-55.5,15-107.6c16.2-6.5,32.7-12.3,49.4-17.4c-0.7,1.5-1.5,3-2.2,4.6C744.3,620.4,735.4,662.5,758.7,714.5
			L758.7,714.5z M729,363.4c-13.7,43.1-23,110.5,9.6,188.1c-10,3.2-20,6.7-29.9,10.4c-3.3-75.8-21.7-148.2-54.7-215.5
			c27.6-17.8,68.6-24.8,93.5-27.5C740,333.1,733.9,348,729,363.4L729,363.4z M318,215.9c-24.2-61.7-55.1-108.8-78.3-138.8
			c32.2,9.1,63.8,20.3,94.6,33.5c79.4,34.3,188.7,98.8,258.4,211.2c65.6,106,76.7,210.6,74.5,279.7c-1.9,56.9-12.7,99-16.7,112.9
			H295.4c39.5-93.7,60.4-185.3,62.3-272.4C359.3,363.4,346,287.4,318,215.9L318,215.9z M213,362c-11.2-36-26.1-69.5-44.2-99.7
			c40.5,9.1,96,30.6,140.5,81.1c5.1,32.7,7.3,65.8,6.5,98.8c-2,86.8-24.3,178.3-66.1,272.1h-44.8c19.8-63.8,30.4-126.3,31.3-185.8
			C237.2,470.8,229.4,414.8,213,362L213,362z M785.8,756.6v36.5H65v-36.5H785.8z"/>
	</g>
</g>
</svg>
